<svg xmlns="http://www.w3.org/2000/svg" xmlns:xlink="http://www.w3.org/1999/xlink" width="500" zoomAndPan="magnify" viewBox="0 0 375 374.999991" height="500" preserveAspectRatio="xMidYMid meet" version="1.0"><path fill="#a4d2c8" d="M 159.726562 273.242188 C 151.449219 275.882812 146.492188 283.195312 146.492188 292.929688 C 146.492188 300.015625 149.816406 306.089844 157.867188 313.683594 C 165.1875 320.601562 179.097656 332.753906 180.109375 333.203125 C 181.6875 333.765625 185.292969 333.707031 186.585938 333.035156 C 187.207031 332.695312 188.332031 331.910156 189.175781 331.234375 C 193.121094 327.914062 202.691406 319.308594 208.886719 313.515625 C 216.152344 306.765625 218.066406 303.953125 219.699219 298.101562 C 220.714844 294.335938 220.207031 286.796875 218.742188 283.535156 C 213.167969 271.046875 196.046875 268.460938 186.304688 278.640625 L 183.660156 281.453125 L 180.503906 278.527344 C 175.71875 274.195312 172.453125 272.734375 167.046875 272.507812 C 164.0625 272.398438 161.585938 272.621094 159.726562 273.242188 Z M 159.726562 273.242188 " fill-opacity="1" fill-rule="nonzero"/><path fill="#077d73" d="M 164.230469 36.433594 C 137.425781 39.1875 112.027344 51.957031 95.191406 71.136719 C 82.40625 85.707031 74.242188 102.246094 69.90625 122.664062 C 67.203125 135.488281 67.035156 141.84375 67.203125 236.902344 L 67.371094 325.496094 L 68.949219 328.140625 C 71.199219 331.964844 74.296875 333.652344 79.085938 333.652344 C 83.25 333.652344 85.335938 333.035156 87.25 331.234375 C 90.179688 328.535156 90.402344 327.351562 90.742188 315.089844 C 91.191406 299.507812 90.515625 300.746094 106.003906 285.503906 C 124.023438 267.785156 146.773438 245.566406 156.910156 235.722656 C 161.867188 230.941406 169.863281 223.179688 174.761719 218.453125 C 186.136719 207.429688 185.234375 207.484375 194.359375 216.992188 C 197.003906 219.746094 200.441406 223.234375 201.960938 224.867188 C 203.539062 226.441406 206.523438 229.589844 208.71875 231.898438 C 214.914062 238.535156 222.851562 246.859375 228.371094 252.652344 C 264.863281 290.734375 271.171875 297.539062 273.308594 301.703125 L 275.167969 305.246094 L 275.449219 317.339844 C 275.730469 330.050781 275.957031 331.066406 278.492188 332.753906 C 280.347656 333.933594 295.328125 334.046875 298.144531 332.921875 C 300.960938 331.683594 303.382812 329.378906 304.734375 326.566406 C 305.859375 324.089844 305.914062 323.300781 305.746094 313.738281 C 305.578125 305.582031 305.296875 302.941406 304.453125 300.519531 C 303.269531 297.257812 304.453125 298.550781 280.800781 273.746094 C 275.167969 267.839844 268.578125 260.921875 266.101562 258.277344 C 263.679688 255.636719 258.613281 250.347656 254.894531 246.464844 C 251.179688 242.585938 245.492188 236.679688 242.226562 233.246094 C 238.957031 229.871094 233.269531 223.910156 229.554688 220.027344 C 225.835938 216.148438 219.191406 209.285156 214.800781 204.785156 C 210.351562 200.285156 206.746094 196.292969 206.746094 195.953125 C 206.746094 194.4375 216.660156 190.78125 225.332031 189.148438 C 228.597656 188.585938 233.269531 187.796875 235.75 187.460938 C 244.308594 186.222656 253.714844 183.917969 260.078125 181.441406 C 280.40625 173.566406 295.496094 158.269531 301.917969 139.144531 C 304.507812 131.324219 305.351562 125.8125 305.691406 114.113281 C 306.027344 102.074219 305.578125 99.882812 302.03125 96.167969 C 298.480469 92.402344 296.511719 91.894531 280.800781 90.375 C 256.585938 88.125 254.390625 87.789062 251.292969 86.15625 C 249.09375 84.976562 247.914062 83.511719 246.730469 80.53125 C 243.519531 72.152344 237.214844 62.644531 230.851562 56.402344 C 218.011719 43.859375 202.917969 37.613281 182.25 36.09375 C 173.183594 35.476562 173.859375 35.421875 164.230469 36.433594 Z M 188.21875 58.875 C 202.691406 61.015625 214.632812 68.382812 222.515625 79.96875 C 224.597656 83.0625 226.121094 85.988281 229.214844 93.132812 C 232.089844 99.824219 237.71875 104.550781 245.828125 107.195312 C 249.941406 108.542969 258.554688 109.726562 272.804688 110.90625 C 280.800781 111.582031 281.984375 111.917969 283.617188 113.71875 C 285.925781 116.25 284.628906 126.375 280.914062 134.8125 C 278.097656 141.28125 275.113281 145.441406 269.875 150.394531 C 264.414062 155.566406 258.332031 159.167969 250.109375 161.980469 C 244.195312 164.003906 242.113281 164.511719 233.214844 166.03125 C 209.507812 169.96875 197.117188 174.1875 182.363281 183.296875 C 170.367188 190.722656 166.203125 194.492188 126.78125 233.191406 C 97.78125 261.652344 91.699219 267.390625 91.25 266.601562 C 90.683594 265.757812 90.574219 169.800781 91.078125 169.238281 C 91.25 169.066406 93.050781 170.25 95.078125 171.9375 C 99.46875 175.535156 103.636719 177.84375 109.605469 179.867188 C 115.464844 181.835938 125.882812 182.34375 132.414062 180.992188 C 144.972656 178.347656 157.023438 168.28125 161.695312 156.46875 C 164.570312 149.15625 165.074219 144.035156 165.074219 121.144531 C 165.074219 101.792969 164.964844 99.769531 164.003906 97.6875 C 162.765625 94.988281 161.527344 93.808594 158.710938 92.625 C 154.9375 91.050781 150.433594 91.78125 147.394531 94.539062 C 144.296875 97.351562 144.238281 97.914062 144.238281 119.175781 C 144.238281 129.917969 144.015625 140.324219 143.734375 142.179688 C 142.664062 149.550781 137.480469 156.1875 130.835938 158.773438 C 126.105469 160.574219 119.800781 160.519531 114.957031 158.492188 C 103.1875 153.710938 96.9375 142.179688 96.9375 125.304688 C 96.9375 100.726562 112.027344 78.957031 137.761719 66.414062 C 145.648438 62.589844 156.179688 59.4375 163.667969 58.59375 C 170.425781 57.863281 182.589844 57.976562 188.21875 58.875 Z M 195.824219 96.5625 C 191.429688 98.136719 188.164062 102.75 188.164062 107.53125 C 188.164062 116.023438 197.285156 121.820312 204.832031 118.164062 C 212.433594 114.507812 214.125 105.054688 208.210938 99.375 C 204.664062 95.945312 200.328125 94.933594 195.824219 96.5625 Z M 195.824219 96.5625 " fill-opacity="1" fill-rule="nonzero"/></svg>