<svg xmlns="http://www.w3.org/2000/svg" xmlns:xlink="http://www.w3.org/1999/xlink" width="500" zoomAndPan="magnify" viewBox="0 0 375 374.999991" height="500" preserveAspectRatio="xMidYMid meet" version="1.0"><defs><clipPath id="5ceb67a353"><path d="M 33.75 0 L 341.25 0 C 359.890625 0 375 15.109375 375 33.75 L 375 341.25 C 375 359.890625 359.890625 375 341.25 375 L 33.75 375 C 15.109375 375 0 359.890625 0 341.25 L 0 33.75 C 0 15.109375 15.109375 0 33.75 0 Z M 33.75 0 " clip-rule="nonzero"/></clipPath><clipPath id="a24586bf1c"><path d="M 0 0 L 375 0 L 375 375 L 0 375 Z M 0 0 " clip-rule="nonzero"/></clipPath><clipPath id="3a99d7f84f"><path d="M 33.75 0 L 341.25 0 C 359.890625 0 375 15.109375 375 33.75 L 375 341.25 C 375 359.890625 359.890625 375 341.25 375 L 33.75 375 C 15.109375 375 0 359.890625 0 341.25 L 0 33.75 C 0 15.109375 15.109375 0 33.75 0 Z M 33.75 0 " clip-rule="nonzero"/></clipPath><clipPath id="d12ab00285"><rect x="0" width="375" y="0" height="375"/></clipPath></defs><g clip-path="url(#5ceb67a353)"><g transform="matrix(1, 0, 0, 1, 0, 0)"><g clip-path="url(#d12ab00285)"><g clip-path="url(#a24586bf1c)"><g clip-path="url(#3a99d7f84f)"><rect x="-82.5" width="540" fill="#077d73" height="539.999987" y="-82.499998" fill-opacity="1"/></g></g></g></g></g><path fill="#a4d2c8" d="M 159.636719 273.378906 C 151.363281 276.023438 146.414062 283.339844 146.414062 293.074219 C 146.414062 300.167969 149.734375 306.246094 157.78125 313.84375 C 165.097656 320.765625 178.996094 332.921875 180.011719 333.371094 C 181.585938 333.933594 185.1875 333.878906 186.484375 333.203125 C 187.101562 332.863281 188.226562 332.078125 189.070312 331.402344 C 193.011719 328.082031 202.578125 319.46875 208.769531 313.671875 C 216.027344 306.921875 217.941406 304.105469 219.574219 298.253906 C 220.585938 294.484375 220.082031 286.941406 218.617188 283.675781 C 213.046875 271.183594 195.9375 268.59375 186.199219 278.78125 L 183.554688 281.59375 L 180.40625 278.667969 C 175.621094 274.335938 172.355469 272.871094 166.953125 272.648438 C 163.972656 272.535156 161.496094 272.757812 159.636719 273.378906 Z M 159.636719 273.378906 " fill-opacity="1" fill-rule="nonzero"/><path fill="#ffffff" d="M 164.140625 36.449219 C 137.351562 39.207031 111.96875 51.980469 95.144531 71.171875 C 82.367188 85.75 74.207031 102.292969 69.875 122.722656 C 67.171875 135.554688 67.003906 141.914062 67.171875 237.023438 L 67.34375 325.660156 L 68.917969 328.304688 C 71.167969 332.132812 74.265625 333.820312 79.046875 333.820312 C 83.210938 333.820312 85.296875 333.203125 87.207031 331.402344 C 90.136719 328.699219 90.359375 327.519531 90.699219 315.25 C 91.148438 299.660156 90.472656 300.898438 105.949219 285.648438 C 123.957031 267.917969 146.695312 245.691406 156.824219 235.839844 C 161.777344 231.058594 169.769531 223.292969 174.664062 218.5625 C 186.03125 207.535156 185.132812 207.589844 194.25 217.101562 C 196.894531 219.859375 200.328125 223.347656 201.847656 224.980469 C 203.421875 226.554688 206.40625 229.707031 208.601562 232.015625 C 214.789062 238.65625 222.726562 246.984375 228.242188 252.78125 C 264.707031 290.882812 271.011719 297.691406 273.148438 301.855469 L 275.007812 305.402344 L 275.289062 317.5 C 275.570312 330.21875 275.796875 331.230469 278.328125 332.921875 C 280.183594 334.101562 295.15625 334.214844 297.96875 333.089844 C 300.78125 331.851562 303.203125 329.542969 304.554688 326.730469 C 305.679688 324.253906 305.734375 323.464844 305.566406 313.898438 C 305.398438 305.738281 305.117188 303.09375 304.273438 300.671875 C 303.089844 297.410156 304.273438 298.703125 280.636719 273.886719 C 275.007812 267.976562 268.421875 261.054688 265.945312 258.410156 C 263.527344 255.761719 258.460938 250.472656 254.746094 246.589844 C 251.03125 242.707031 245.347656 236.796875 242.085938 233.363281 C 238.820312 229.988281 233.136719 224.023438 229.421875 220.140625 C 225.707031 216.257812 219.066406 209.390625 214.675781 204.886719 C 210.230469 200.386719 206.628906 196.390625 206.628906 196.054688 C 206.628906 194.535156 216.535156 190.875 225.203125 189.242188 C 228.464844 188.679688 233.136719 187.894531 235.613281 187.554688 C 244.167969 186.316406 253.566406 184.007812 259.925781 181.535156 C 280.242188 173.65625 295.324219 158.347656 301.738281 139.210938 C 304.328125 131.390625 305.171875 125.875 305.511719 114.167969 C 305.847656 102.125 305.398438 99.929688 301.851562 96.214844 C 298.304688 92.445312 296.335938 91.9375 280.636719 90.417969 C 256.4375 88.167969 254.242188 87.832031 251.144531 86.199219 C 248.949219 85.015625 247.769531 83.554688 246.585938 80.570312 C 243.378906 72.183594 237.078125 62.675781 230.71875 56.425781 C 217.886719 43.878906 202.804688 37.632812 182.148438 36.113281 C 173.089844 35.492188 173.765625 35.4375 164.140625 36.449219 Z M 188.113281 58.902344 C 202.578125 61.042969 214.507812 68.414062 222.386719 80.007812 C 224.46875 83.101562 225.988281 86.03125 229.085938 93.175781 C 231.953125 99.875 237.582031 104.601562 245.6875 107.246094 C 249.796875 108.597656 258.40625 109.777344 272.644531 110.960938 C 280.636719 111.636719 281.816406 111.972656 283.449219 113.773438 C 285.757812 116.308594 284.460938 126.4375 280.746094 134.878906 C 277.933594 141.351562 274.953125 145.515625 269.71875 150.46875 C 264.257812 155.644531 258.179688 159.246094 249.964844 162.0625 C 244.054688 164.085938 241.972656 164.59375 233.082031 166.113281 C 209.386719 170.050781 197.007812 174.273438 182.261719 183.390625 C 170.273438 190.820312 166.109375 194.589844 126.714844 233.308594 C 97.730469 261.785156 91.65625 267.527344 91.203125 266.738281 C 90.640625 265.894531 90.527344 169.882812 91.035156 169.320312 C 91.203125 169.152344 93.003906 170.332031 95.03125 172.023438 C 99.421875 175.625 103.585938 177.929688 109.550781 179.957031 C 115.402344 181.925781 125.816406 182.433594 132.34375 181.082031 C 144.894531 178.4375 156.9375 168.363281 161.609375 156.546875 C 164.476562 149.230469 164.984375 144.109375 164.984375 121.203125 C 164.984375 101.84375 164.871094 99.816406 163.914062 97.734375 C 162.675781 95.035156 161.4375 93.851562 158.625 92.671875 C 154.855469 91.09375 150.351562 91.828125 147.3125 94.585938 C 144.21875 97.398438 144.160156 97.960938 144.160156 119.234375 C 144.160156 129.984375 143.9375 140.394531 143.65625 142.25 C 142.585938 149.625 137.410156 156.265625 130.765625 158.851562 C 126.039062 160.652344 119.738281 160.597656 114.898438 158.570312 C 103.136719 153.789062 96.886719 142.25 96.886719 125.367188 C 96.886719 100.773438 111.96875 78.996094 137.691406 66.445312 C 145.570312 62.617188 156.09375 59.464844 163.578125 58.621094 C 170.332031 57.890625 182.488281 58.003906 188.113281 58.902344 Z M 195.710938 96.609375 C 191.324219 98.1875 188.058594 102.800781 188.058594 107.585938 C 188.058594 116.082031 197.175781 121.878906 204.714844 118.222656 C 212.3125 114.5625 214.003906 105.109375 208.09375 99.425781 C 204.546875 95.992188 200.214844 94.976562 195.710938 96.609375 Z M 195.710938 96.609375 " fill-opacity="1" fill-rule="nonzero"/></svg>